<?xml version="1.0" encoding="UTF-8"?>
<svg xmlns="http://www.w3.org/2000/svg" xmlns:xlink="http://www.w3.org/1999/xlink" width="41px" height="50px" viewBox="0 0 41 50" version="1.1">
<g id="surface1">
<path style=" stroke:none;fill-rule:nonzero;fill:rgb(0%,0%,0%);fill-opacity:1;" d="M 20.34375 0.164062 C 20.289062 0.253906 20.207031 0.445312 20.160156 0.585938 C 19.808594 1.644531 18.574219 4.347656 16.46875 8.648438 C 14 13.699219 12.609375 17.105469 12.414062 18.597656 C 12.382812 18.847656 12.335938 19.917969 12.316406 20.96875 C 12.273438 22.898438 12.25 23.144531 12.082031 23.082031 C 11.773438 22.964844 10.898438 21.046875 10.527344 19.667969 C 10.433594 19.328125 10.25 18.222656 10.25 18.027344 C 10.25 18.015625 10.230469 18.011719 10.207031 18.011719 C 10.183594 18.011719 10.125 18.09375 10.078125 18.1875 C 9.957031 18.4375 9.824219 18.421875 9.6875 18.144531 C 9.3125 17.382812 9.523438 16.078125 10.203125 14.964844 C 10.367188 14.6875 10.492188 14.460938 10.480469 14.449219 C 10.375 14.34375 9.6875 14.945312 9.503906 15.3125 C 9.347656 15.613281 9.101562 15.867188 8.96875 15.867188 C 8.910156 15.867188 8.78125 15.796875 8.679688 15.710938 C 8.375 15.445312 8.355469 15.554688 8.574219 16.3125 C 8.886719 17.347656 8.878906 17.855469 8.5625 17.855469 C 8.148438 17.863281 8.210938 18.039062 8.890625 18.828125 C 9.699219 19.769531 9.898438 20.164062 9.601562 20.234375 C 9.292969 20.3125 8.421875 20.082031 7.175781 19.585938 C 6.820312 19.449219 6.488281 19.335938 6.449219 19.347656 C 6.351562 19.367188 6.835938 19.734375 7.886719 20.4375 C 8.773438 21.035156 9.21875 21.445312 9.21875 21.652344 C 9.21875 21.84375 9.148438 21.972656 8.894531 22.230469 C 8.664062 22.46875 8.550781 22.503906 8.550781 22.34375 C 8.550781 22.183594 8.425781 22.296875 8.289062 22.59375 C 8.164062 22.847656 7.871094 23.296875 7.582031 23.667969 C 7.433594 23.867188 7.410156 23.921875 7.441406 24.078125 C 7.535156 24.5625 7.515625 24.644531 7.140625 25.167969 C 6.941406 25.445312 6.757812 25.65625 6.730469 25.648438 C 6.675781 25.632812 6.460938 25.144531 6.160156 24.355469 L 5.964844 23.835938 L 6.105469 23.15625 C 6.253906 22.417969 6.464844 21.664062 6.632812 21.238281 C 6.792969 20.851562 6.691406 20.851562 6.304688 21.246094 C 5.921875 21.632812 5.597656 22.230469 5.507812 22.730469 C 5.46875 22.898438 5.4375 23.066406 5.429688 23.101562 C 5.414062 23.15625 5.324219 23.164062 5.027344 23.136719 C 4.78125 23.113281 4.636719 23.121094 4.613281 23.15625 C 4.59375 23.183594 4.636719 23.320312 4.703125 23.453125 C 4.953125 23.945312 4.929688 24.265625 4.605469 24.730469 C 4.5 24.878906 4.425781 25.011719 4.441406 25.027344 C 4.449219 25.035156 4.574219 25.015625 4.714844 24.96875 C 5.269531 24.804688 5.355469 24.796875 5.46875 24.90625 C 5.589844 25.027344 5.929688 25.714844 5.898438 25.765625 C 5.882812 25.785156 5.507812 25.65625 5.0625 25.480469 C 4.613281 25.300781 4.117188 25.128906 3.957031 25.097656 C 3.667969 25.039062 3.398438 25.0625 3.398438 25.148438 C 3.398438 25.167969 3.542969 25.265625 3.722656 25.355469 C 4.214844 25.617188 4.539062 25.832031 4.839844 26.097656 C 4.996094 26.234375 5.308594 26.464844 5.535156 26.605469 C 5.769531 26.753906 6.019531 26.949219 6.097656 27.039062 C 6.300781 27.28125 6.511719 27.730469 6.609375 28.121094 C 6.679688 28.40625 6.800781 29.394531 6.800781 29.71875 C 6.800781 29.777344 6.691406 29.636719 6.550781 29.402344 C 6.074219 28.570312 4.996094 27.4375 4.996094 27.761719 C 4.996094 27.789062 5.0625 27.902344 5.152344 28.011719 C 5.355469 28.265625 5.71875 29.019531 5.71875 29.1875 C 5.71875 29.367188 5.644531 29.394531 4.917969 29.433594 C 4.507812 29.460938 4.300781 29.496094 4.203125 29.554688 C 3.980469 29.703125 4.03125 29.785156 4.363281 29.820312 C 4.882812 29.871094 4.964844 29.894531 5.304688 30.054688 C 5.722656 30.25 6.09375 30.53125 6.253906 30.765625 C 6.449219 31.054688 6.644531 31.996094 6.824219 33.46875 C 6.90625 34.136719 6.929688 35.050781 6.867188 35.050781 C 6.753906 35.050781 5.546875 33.367188 5.207031 32.734375 C 5.015625 32.378906 5.011719 32.214844 5.160156 31.710938 C 5.320312 31.179688 5.253906 31.136719 4.847656 31.496094 C 4.472656 31.828125 4.253906 31.9375 3.972656 31.9375 C 3.851562 31.9375 3.761719 31.949219 3.761719 31.964844 C 3.761719 31.972656 3.875 32.164062 4.019531 32.378906 C 4.15625 32.585938 4.285156 32.847656 4.304688 32.949219 C 4.347656 33.15625 4.160156 34.25 4.0625 34.367188 C 3.957031 34.5 3.804688 34.445312 3.503906 34.152344 C 2.71875 33.414062 2.003906 31.886719 1.75 30.433594 C 1.695312 30.101562 1.632812 29.816406 1.617188 29.800781 C 1.601562 29.785156 1.597656 30.367188 1.605469 31.097656 C 1.632812 32.527344 1.652344 32.632812 2.105469 34.144531 L 2.210938 34.488281 L 1.734375 34.921875 C 1.476562 35.164062 1.296875 35.355469 1.339844 35.355469 C 1.375 35.355469 1.589844 35.320312 1.816406 35.277344 C 2.085938 35.21875 2.394531 35.199219 2.726562 35.214844 C 3.277344 35.234375 3.367188 35.277344 3.800781 35.683594 C 4.089844 35.953125 4.132812 36.128906 4.070312 36.765625 C 3.980469 37.65625 4.007812 37.714844 4.351562 37.34375 C 4.644531 37.015625 4.867188 36.515625 4.871094 36.148438 L 4.878906 35.84375 L 5.144531 35.855469 C 5.871094 35.898438 6.503906 36.367188 7.019531 37.246094 C 7.324219 37.765625 7.570312 38.867188 7.570312 39.695312 C 7.570312 40.183594 7.5 40.148438 7.226562 39.527344 C 6.882812 38.734375 6.417969 38.164062 6.035156 38.066406 C 5.53125 37.933594 5.546875 37.933594 5.609375 38.054688 C 5.644531 38.113281 5.808594 38.3125 5.976562 38.488281 C 6.144531 38.667969 6.285156 38.835938 6.285156 38.863281 C 6.285156 38.894531 6.0625 39.101562 5.792969 39.335938 C 5.527344 39.570312 5.304688 39.769531 5.304688 39.785156 C 5.304688 39.800781 5.523438 39.796875 5.789062 39.777344 C 6.5625 39.71875 6.742188 39.851562 7.128906 40.746094 C 7.386719 41.335938 7.472656 41.78125 7.457031 42.414062 L 7.441406 42.933594 L 7.246094 42.527344 C 6.90625 41.828125 6.707031 41.5625 6.324219 41.304688 C 5.777344 40.949219 4.738281 40.59375 4.738281 40.761719 C 4.738281 40.789062 4.769531 40.816406 4.804688 40.816406 C 4.949219 40.816406 5.527344 41.214844 5.863281 41.546875 C 6.222656 41.898438 6.675781 42.597656 6.628906 42.71875 C 6.609375 42.769531 6.464844 42.800781 6.171875 42.820312 C 5.9375 42.835938 5.589844 42.898438 5.398438 42.960938 C 5.058594 43.0625 4.585938 43.335938 4.542969 43.453125 C 4.511719 43.554688 4.835938 43.582031 5.402344 43.527344 C 5.695312 43.496094 5.976562 43.46875 6.027344 43.46875 C 6.140625 43.46875 6.679688 44.300781 6.777344 44.628906 C 6.828125 44.800781 6.851562 45.1875 6.851562 46.066406 C 6.851562 47.28125 6.800781 47.878906 6.6875 48.078125 C 6.628906 48.171875 6.613281 48.121094 6.585938 47.703125 C 6.550781 47.214844 6.367188 46.421875 6.179688 45.996094 C 6.0625 45.71875 5.800781 45.363281 5.308594 44.820312 C 4.539062 43.960938 4.222656 43.578125 3.847656 43.035156 C 3.042969 41.871094 2.246094 40.4375 1.570312 38.953125 C 1.097656 37.917969 0.777344 37.296875 0.714844 37.296875 C 0.652344 37.296875 0.652344 37.296875 0.746094 37.554688 C 0.792969 37.671875 0.917969 38.234375 1.03125 38.796875 C 1.277344 40.03125 1.390625 40.445312 1.632812 41.035156 C 1.730469 41.28125 1.796875 41.515625 1.78125 41.554688 C 1.746094 41.652344 1.410156 41.65625 1.113281 41.570312 C 0.859375 41.496094 0.453125 41.105469 0.246094 40.75 C -0.015625 40.300781 -0.0664062 40.488281 0.101562 41.253906 C 0.160156 41.503906 0.222656 41.980469 0.238281 42.304688 C 0.257812 42.636719 0.277344 42.90625 0.289062 42.90625 C 0.296875 42.90625 0.390625 42.851562 0.496094 42.78125 C 0.789062 42.582031 1.054688 42.53125 1.390625 42.601562 C 1.777344 42.683594 2.117188 42.878906 2.421875 43.179688 C 2.84375 43.59375 2.824219 43.671875 2.261719 43.953125 C 1.730469 44.21875 1.167969 44.769531 1.054688 45.136719 C 1.003906 45.304688 1.101562 45.285156 1.476562 45.046875 C 1.984375 44.71875 2.347656 44.617188 2.539062 44.761719 C 2.589844 44.789062 2.667969 44.933594 2.71875 45.070312 C 2.832031 45.382812 2.941406 45.464844 3.085938 45.335938 C 3.140625 45.285156 3.203125 45.179688 3.21875 45.101562 C 3.261719 44.90625 3.359375 44.835938 3.570312 44.835938 C 3.800781 44.835938 4.121094 45.003906 4.320312 45.230469 C 4.707031 45.667969 5.007812 46.527344 5.007812 47.214844 C 5.007812 47.699219 4.933594 47.914062 4.382812 49.066406 C 4.183594 49.484375 4.019531 49.847656 4.019531 49.878906 C 4.019531 49.980469 7.367188 50 22.261719 50 L 36.9375 50 L 36.898438 49.882812 C 36.882812 49.820312 36.785156 49.613281 36.6875 49.417969 C 35.960938 47.980469 35.777344 47.183594 35.972656 46.269531 C 36.101562 45.667969 36.386719 45.261719 36.847656 44.996094 C 37.269531 44.753906 37.542969 44.796875 37.707031 45.113281 C 37.785156 45.265625 37.835938 45.304688 37.917969 45.296875 C 38.039062 45.28125 38.074219 45.230469 38.1875 44.9375 C 38.25 44.78125 38.296875 44.746094 38.457031 44.714844 C 38.707031 44.667969 39.089844 44.789062 39.480469 45.050781 C 39.835938 45.285156 39.945312 45.3125 39.886719 45.136719 C 39.753906 44.710938 39.183594 44.152344 38.570312 43.863281 C 38.125 43.652344 38.117188 43.5625 38.492188 43.199219 C 38.996094 42.710938 39.703125 42.4375 40.140625 42.5625 C 40.246094 42.597656 40.402344 42.695312 40.484375 42.789062 C 40.566406 42.882812 40.660156 42.960938 40.691406 42.960938 C 40.722656 42.960938 40.738281 42.71875 40.730469 42.28125 C 40.714844 41.65625 40.726562 41.570312 40.859375 41.167969 C 41.027344 40.679688 41.027344 40.484375 40.882812 40.484375 C 40.816406 40.484375 40.761719 40.546875 40.714844 40.679688 C 40.617188 40.960938 40.40625 41.203125 40.089844 41.414062 C 39.867188 41.5625 39.742188 41.605469 39.5 41.621094 C 39.121094 41.648438 39.089844 41.59375 39.269531 41.199219 C 39.558594 40.570312 40.308594 36.886719 40.074219 37.253906 C 40.046875 37.300781 39.789062 37.871094 39.507812 38.527344 C 38.316406 41.265625 37.261719 42.984375 35.773438 44.617188 C 35.4375 44.980469 35.054688 45.449219 34.917969 45.65625 C 34.582031 46.15625 34.5 46.433594 34.300781 47.703125 C 34.222656 48.183594 34.191406 48.113281 34.066406 47.1875 C 33.957031 46.382812 33.949219 45.253906 34.042969 44.820312 C 34.277344 43.75 34.894531 43.304688 35.796875 43.546875 C 36.5 43.734375 36.570312 43.699219 36.199219 43.355469 C 35.855469 43.039062 35.5 42.898438 34.925781 42.84375 C 34.253906 42.78125 34.210938 42.769531 34.175781 42.652344 C 34.058594 42.285156 35.148438 41.144531 36.003906 40.746094 L 36.285156 40.613281 L 36 40.636719 C 35.351562 40.695312 34.675781 41.011719 34.226562 41.46875 C 34.03125 41.671875 33.824219 41.980469 33.519531 42.546875 C 33.4375 42.6875 33.355469 42.804688 33.332031 42.804688 C 33.207031 42.804688 33.1875 42.035156 33.300781 41.503906 C 33.460938 40.753906 34.046875 39.851562 34.449219 39.75 C 34.566406 39.71875 34.773438 39.714844 35 39.746094 C 35.585938 39.820312 35.582031 39.828125 35.160156 39.433594 C 34.941406 39.234375 34.753906 39.019531 34.738281 38.953125 C 34.699219 38.816406 34.769531 38.683594 35.03125 38.347656 C 35.222656 38.105469 35.289062 37.90625 35.179688 37.90625 C 35.148438 37.90625 34.988281 37.972656 34.824219 38.054688 C 34.464844 38.238281 34.082031 38.636719 33.84375 39.085938 C 33.566406 39.605469 33.320312 40 33.269531 40 C 33.128906 40 33.308594 38.886719 33.582031 38.039062 C 33.851562 37.230469 34.320312 36.53125 34.839844 36.179688 C 35.078125 36.015625 35.453125 35.878906 35.773438 35.832031 L 35.992188 35.804688 L 36.03125 36.015625 C 36.070312 36.265625 36.484375 36.917969 36.816406 37.253906 C 37.082031 37.519531 37.222656 37.578125 37.164062 37.382812 C 36.96875 36.769531 36.929688 36.335938 37.039062 35.945312 C 37.121094 35.644531 37.414062 35.382812 37.78125 35.277344 C 38.03125 35.203125 38.207031 35.195312 38.734375 35.21875 C 39.089844 35.238281 39.5 35.285156 39.652344 35.328125 C 39.902344 35.394531 40.011719 35.363281 39.839844 35.265625 C 39.644531 35.15625 39.171875 34.648438 39.082031 34.449219 C 38.96875 34.199219 38.992188 34.035156 39.222656 33.3125 C 39.496094 32.449219 39.652344 31.003906 39.550781 30.203125 C 39.476562 29.5625 39.425781 29.496094 39.382812 29.980469 C 39.265625 31.4375 38.328125 33.566406 37.542969 34.183594 C 37.222656 34.433594 37.042969 34.488281 36.953125 34.367188 C 36.863281 34.246094 36.769531 33.664062 36.765625 33.1875 C 36.761719 32.820312 36.777344 32.765625 36.972656 32.386719 C 37.089844 32.164062 37.1875 31.96875 37.1875 31.960938 C 37.1875 31.949219 37.074219 31.9375 36.941406 31.9375 C 36.632812 31.9375 36.324219 31.753906 36.007812 31.382812 C 35.886719 31.238281 35.777344 31.128906 35.765625 31.132812 C 35.761719 31.144531 35.789062 31.320312 35.828125 31.53125 C 35.953125 32.167969 35.925781 32.4375 35.71875 32.832031 C 35.5625 33.136719 34.59375 34.464844 34.207031 34.898438 L 34.050781 35.078125 L 34.046875 34.84375 C 34.046875 34.53125 34.175781 33.222656 34.304688 32.269531 C 34.4375 31.300781 34.597656 30.933594 35.097656 30.46875 C 35.519531 30.082031 35.878906 29.90625 36.425781 29.84375 C 36.863281 29.789062 36.992188 29.734375 36.953125 29.621094 C 36.882812 29.453125 36.085938 29.25 35.757812 29.316406 C 35.667969 29.335938 35.507812 29.332031 35.40625 29.316406 C 35.234375 29.28125 35.226562 29.269531 35.257812 29.144531 C 35.3125 28.902344 35.703125 28.300781 35.992188 27.996094 C 36.148438 27.835938 36.25 27.703125 36.214844 27.703125 C 36.183594 27.703125 36.015625 27.777344 35.84375 27.855469 C 35.464844 28.050781 35.003906 28.5 34.769531 28.917969 C 34.453125 29.472656 34.308594 29.695312 34.253906 29.695312 C 34.109375 29.695312 34.257812 28.519531 34.484375 27.851562 C 34.679688 27.285156 34.902344 27.003906 35.53125 26.53125 C 35.832031 26.304688 36.214844 26.011719 36.386719 25.871094 C 36.550781 25.734375 36.929688 25.5 37.234375 25.347656 L 37.78125 25.078125 L 37.445312 25.0625 C 36.992188 25.039062 36.601562 25.121094 35.925781 25.382812 C 35.179688 25.667969 35.128906 25.683594 35.128906 25.601562 C 35.128906 25.503906 35.515625 24.835938 35.632812 24.730469 C 35.726562 24.644531 35.746094 24.648438 36.058594 24.796875 C 36.242188 24.878906 36.429688 24.949219 36.484375 24.949219 C 36.613281 24.949219 36.589844 24.832031 36.441406 24.695312 C 36.164062 24.433594 36.152344 23.949219 36.414062 23.484375 C 36.503906 23.335938 36.570312 23.203125 36.570312 23.1875 C 36.570312 23.171875 36.398438 23.164062 36.1875 23.164062 C 35.746094 23.164062 35.675781 23.117188 35.589844 22.789062 C 35.386719 21.960938 35.167969 21.519531 34.804688 21.195312 C 34.40625 20.84375 34.320312 20.898438 34.515625 21.386719 C 34.757812 21.984375 34.988281 22.863281 35.050781 23.445312 C 35.09375 23.816406 34.996094 24.148438 34.601562 24.917969 C 34.273438 25.578125 34.261719 25.585938 34.144531 25.480469 C 33.972656 25.328125 33.726562 24.648438 33.695312 24.261719 C 33.6875 24.0625 33.648438 23.878906 33.613281 23.851562 C 33.496094 23.75 33.234375 23.386719 33.046875 23.070312 C 32.789062 22.644531 32.5 22.347656 32.335938 22.347656 C 32.0625 22.347656 31.722656 21.769531 31.800781 21.445312 C 31.851562 21.246094 32.207031 20.917969 32.964844 20.382812 C 33.625 19.914062 34.421875 19.285156 34.398438 19.253906 C 34.386719 19.25 33.972656 19.398438 33.480469 19.597656 C 32.09375 20.144531 31.3125 20.332031 31.234375 20.136719 C 31.171875 19.96875 31.707031 19.085938 32.207031 18.535156 C 32.398438 18.328125 32.507812 18.152344 32.53125 18.035156 C 32.566406 17.832031 32.546875 17.796875 32.382812 17.777344 C 32.320312 17.769531 32.253906 17.761719 32.234375 17.761719 C 32.210938 17.753906 32.183594 17.667969 32.160156 17.5625 C 32.105469 17.261719 32.226562 16.554688 32.429688 16.085938 C 32.691406 15.449219 32.660156 15.382812 32.257812 15.6875 C 32.027344 15.863281 32.015625 15.867188 31.894531 15.785156 C 31.722656 15.671875 31.542969 15.46875 31.449219 15.28125 C 31.410156 15.195312 31.296875 15.054688 31.203125 14.96875 C 31.046875 14.820312 30.480469 14.4375 30.421875 14.4375 C 30.40625 14.4375 30.496094 14.601562 30.625 14.800781 C 30.929688 15.261719 31.234375 15.90625 31.335938 16.300781 C 31.53125 17.0625 31.480469 17.695312 31.171875 18.367188 L 31.019531 18.699219 L 30.878906 18.394531 C 30.800781 18.222656 30.703125 18.003906 30.65625 17.90625 L 30.570312 17.730469 L 30.539062 18.265625 C 30.503906 18.882812 30.480469 19.003906 30.277344 19.796875 C 29.929688 21.121094 29.425781 22.402344 29.105469 22.769531 C 28.921875 22.980469 28.824219 23.003906 28.765625 22.867188 C 28.710938 22.71875 28.644531 21.503906 28.636719 20.5625 C 28.632812 19.238281 28.554688 18.203125 28.433594 17.730469 C 28.289062 17.171875 27.890625 16.113281 27.433594 15.046875 C 26.691406 13.3125 25.953125 11.753906 22.859375 5.355469 C 21.242188 2.027344 20.679688 0.753906 20.613281 0.296875 C 20.59375 0.152344 20.546875 0.0273438 20.515625 0.015625 C 20.480469 0 20.402344 0.0664062 20.34375 0.164062 Z M 21.828125 8.136719 C 23.023438 8.695312 23.199219 9.394531 22.339844 10.222656 C 22.015625 10.535156 21.179688 11.132812 20.964844 11.199219 C 20.902344 11.21875 20.835938 11.21875 20.820312 11.199219 C 20.769531 11.152344 20.773438 8.269531 20.824219 8.101562 C 20.890625 7.855469 21.246094 7.871094 21.828125 8.136719 Z M 20.035156 8.035156 C 20.074219 8.078125 20.117188 8.363281 20.140625 8.671875 C 20.195312 9.40625 20.214844 11.355469 20.171875 11.34375 C 20.078125 11.316406 19.265625 10.832031 19.027344 10.65625 C 18.707031 10.421875 18.328125 10.011719 18.214844 9.769531 C 18.078125 9.496094 18.054688 9.128906 18.152344 8.945312 C 18.3125 8.632812 18.96875 8.128906 19.367188 8.003906 C 19.59375 7.9375 19.96875 7.953125 20.035156 8.035156 Z M 23.359375 10.886719 C 23.648438 11.019531 24.070312 11.429688 24.152344 11.648438 C 24.332031 12.117188 24.054688 12.90625 23.621094 13.167969 C 23.382812 13.3125 22.957031 13.300781 22.667969 13.136719 C 22.347656 12.953125 21.667969 12.378906 21.457031 12.101562 C 21.246094 11.835938 21.253906 11.800781 21.617188 11.480469 C 22.128906 11.03125 22.613281 10.769531 22.945312 10.769531 C 23.035156 10.765625 23.21875 10.820312 23.359375 10.886719 Z M 18.445312 10.921875 C 18.691406 10.984375 19.074219 11.238281 19.40625 11.570312 L 19.679688 11.84375 L 19.417969 12.144531 C 18.433594 13.269531 17.730469 13.535156 17.164062 12.996094 C 16.921875 12.769531 16.785156 12.480469 16.753906 12.148438 C 16.71875 11.78125 16.808594 11.472656 17.007812 11.246094 C 17.347656 10.863281 17.789062 10.761719 18.445312 10.921875 Z M 20.179688 12.960938 C 20.210938 13.882812 20.058594 15.398438 19.820312 16.4375 C 19.695312 17 19.648438 17.105469 19.578125 16.996094 C 19.519531 16.90625 18.75 13.84375 18.75 13.714844 C 18.75 13.511719 19.875 12.433594 20.0625 12.460938 C 20.15625 12.472656 20.164062 12.519531 20.179688 12.960938 Z M 21.207031 12.746094 C 21.5625 13.03125 21.9375 13.445312 22.023438 13.652344 C 22.070312 13.765625 22.089844 13.898438 22.070312 14 C 21.925781 14.683594 21.359375 16.785156 21.277344 16.933594 C 21.238281 17.003906 21.222656 16.996094 21.179688 16.882812 C 21.019531 16.472656 20.757812 14.238281 20.757812 13.320312 C 20.757812 12.453125 20.785156 12.417969 21.207031 12.746094 Z M 16.140625 14.378906 C 16.210938 14.484375 16.375 14.789062 16.507812 15.054688 L 16.75 15.535156 L 16.507812 15.75 C 16.328125 15.914062 16.226562 15.96875 16.097656 15.96875 C 15.863281 15.96875 15.570312 15.84375 15.472656 15.6875 C 15.394531 15.570312 15.394531 15.539062 15.503906 15.195312 C 15.648438 14.71875 15.894531 14.183594 15.960938 14.183594 C 15.992188 14.183594 16.074219 14.269531 16.140625 14.378906 Z M 25.226562 14.472656 C 25.371094 14.753906 25.554688 15.265625 25.621094 15.570312 C 25.707031 15.96875 24.984375 16.050781 24.546875 15.695312 L 24.316406 15.511719 L 24.496094 15.113281 C 24.734375 14.605469 24.976562 14.183594 25.039062 14.183594 C 25.0625 14.183594 25.152344 14.316406 25.226562 14.472656 Z M 17.039062 16.386719 C 17.296875 16.761719 17.460938 17.132812 17.460938 17.332031 C 17.460938 17.59375 17.320312 17.835938 16.878906 18.355469 L 16.507812 18.789062 L 16.492188 17.828125 C 16.476562 16.832031 16.523438 16.421875 16.671875 16.265625 C 16.796875 16.128906 16.875 16.152344 17.039062 16.386719 Z M 24.523438 16.316406 C 24.652344 16.433594 24.691406 16.515625 24.71875 16.714844 C 24.757812 17.054688 24.722656 18.519531 24.675781 18.519531 C 24.652344 18.519531 24.398438 18.214844 24.109375 17.84375 L 23.589844 17.164062 L 23.800781 16.753906 C 24.140625 16.113281 24.230469 16.054688 24.523438 16.316406 Z M 15.589844 16.347656 L 15.734375 16.46875 L 15.75 17.644531 C 15.761719 18.285156 15.75 18.886719 15.726562 18.980469 L 15.679688 19.144531 L 15.359375 18.746094 C 15.179688 18.519531 14.933594 18.1875 14.804688 17.996094 C 14.578125 17.664062 14.570312 17.648438 14.632812 17.460938 C 14.726562 17.171875 15.085938 16.46875 15.210938 16.335938 C 15.34375 16.195312 15.410156 16.195312 15.589844 16.347656 Z M 25.949219 16.453125 C 26.148438 16.679688 26.347656 17.011719 26.449219 17.289062 C 26.527344 17.511719 26.519531 17.519531 26.390625 17.738281 C 26.25 17.984375 25.417969 18.996094 25.335938 19.019531 C 25.273438 19.046875 25.28125 18.679688 25.339844 17.753906 C 25.398438 16.929688 25.464844 16.5625 25.578125 16.394531 C 25.683594 16.230469 25.769531 16.246094 25.949219 16.453125 Z M 23.859375 18.351562 C 24.359375 18.933594 24.621094 19.328125 24.621094 19.496094 C 24.621094 19.648438 24.277344 20.203125 24.101562 20.328125 C 23.988281 20.402344 23.976562 20.398438 23.863281 20.296875 C 23.707031 20.152344 23.074219 18.90625 23.074219 18.75 C 23.074219 18.605469 23.375 17.90625 23.4375 17.90625 C 23.457031 17.90625 23.648438 18.105469 23.859375 18.351562 Z M 17.8125 18.636719 C 18.011719 19.0625 18.042969 19.269531 17.949219 19.554688 C 17.835938 19.902344 17.398438 20.820312 17.359375 20.804688 C 17.292969 20.777344 16.480469 19.882812 16.480469 19.835938 C 16.480469 19.6875 17.523438 18.417969 17.640625 18.417969 C 17.675781 18.417969 17.753906 18.515625 17.8125 18.636719 Z M 14.757812 19.199219 C 15.417969 19.867188 15.503906 20.011719 15.375 20.261719 C 15.210938 20.59375 13.984375 22.5 13.9375 22.5 C 13.871094 22.5 13.9375 19.050781 14.011719 18.8125 C 14.039062 18.710938 14.09375 18.621094 14.128906 18.621094 C 14.164062 18.621094 14.449219 18.882812 14.757812 19.199219 Z M 27.097656 18.933594 C 27.148438 19.304688 27.207031 22.753906 27.160156 22.753906 C 27.140625 22.753906 27.050781 22.632812 26.96875 22.484375 C 26.890625 22.34375 26.535156 21.734375 26.1875 21.144531 C 25.835938 20.550781 25.546875 20.046875 25.546875 20.019531 C 25.546875 19.964844 26.65625 18.871094 26.835938 18.753906 C 27.011719 18.636719 27.0625 18.671875 27.097656 18.933594 Z M 16.828125 21.5625 C 17.039062 21.960938 17.183594 22.5625 17.25 23.335938 C 17.28125 23.667969 17.3125 23.949219 17.316406 23.953125 C 17.328125 23.960938 17.527344 24.03125 17.769531 24.113281 C 18.289062 24.285156 18.496094 24.4375 18.410156 24.578125 C 18.378906 24.628906 18.296875 24.671875 18.222656 24.683594 C 18.054688 24.703125 17.503906 24.453125 17.1875 24.21875 C 16.730469 23.867188 16.632812 23.980469 16.597656 24.898438 C 16.570312 25.683594 16.621094 25.914062 16.851562 26.019531 C 17.019531 26.097656 17.253906 26.382812 17.253906 26.503906 C 17.253906 26.59375 16.890625 26.632812 16.042969 26.632812 L 15.3125 26.632812 L 15.28125 26.003906 C 15.261719 25.664062 15.234375 24.695312 15.214844 23.851562 C 15.175781 21.855469 15.203125 21.679688 15.777344 20.847656 L 15.984375 20.539062 L 16.324219 20.898438 C 16.507812 21.09375 16.738281 21.394531 16.828125 21.5625 Z M 25.199219 20.75 C 25.339844 20.921875 25.5 21.238281 25.582031 21.527344 C 25.652344 21.765625 25.671875 22.21875 25.691406 24.304688 C 25.710938 26.664062 25.707031 26.800781 25.621094 26.765625 C 25.441406 26.699219 24.84375 26.632812 24.351562 26.632812 C 23.75 26.632812 23.589844 26.582031 23.589844 26.402344 C 23.589844 26.203125 23.679688 26.082031 23.894531 25.96875 C 24.253906 25.789062 24.3125 25.667969 24.3125 25.101562 C 24.3125 24.601562 24.246094 24.097656 24.167969 24.019531 C 24.140625 23.996094 23.859375 24.101562 23.535156 24.253906 C 22.886719 24.554688 22.390625 24.699219 22.292969 24.601562 C 22.199219 24.511719 22.332031 24.398438 22.878906 24.128906 C 23.152344 23.988281 23.414062 23.828125 23.457031 23.761719 C 23.503906 23.699219 23.570312 23.402344 23.617188 23.113281 C 23.765625 22.105469 24.019531 21.539062 24.570312 20.960938 C 24.871094 20.644531 25.054688 20.582031 25.199219 20.75 Z M 17.433594 21.539062 C 17.546875 21.746094 17.585938 21.894531 17.605469 22.1875 C 17.621094 22.488281 17.617188 22.5625 17.5625 22.519531 C 17.488281 22.445312 17.003906 21.15625 17.035156 21.105469 C 17.074219 21.035156 17.28125 21.261719 17.433594 21.539062 Z M 23.699219 21.847656 C 23.300781 22.714844 23.253906 22.738281 23.410156 22.019531 C 23.535156 21.433594 23.753906 21.09375 23.921875 21.230469 C 23.941406 21.25 23.84375 21.527344 23.699219 21.847656 Z M 31.152344 22.320312 C 31.492188 22.472656 32.046875 23 32.191406 23.289062 C 32.320312 23.550781 32.289062 23.765625 32.121094 23.796875 C 32.0625 23.8125 31.886719 23.832031 31.734375 23.847656 C 31.203125 23.898438 31.261719 24.027344 31.957031 24.371094 C 32.734375 24.761719 33.15625 25.238281 33.355469 25.96875 C 33.503906 26.496094 33.480469 27.53125 33.308594 28.183594 C 33.175781 28.671875 33 29.046875 32.835938 29.183594 C 32.792969 29.21875 32.742188 29.234375 32.726562 29.21875 C 32.710938 29.203125 32.753906 28.945312 32.816406 28.644531 C 33.050781 27.496094 32.792969 26.449219 32.125 25.835938 C 31.707031 25.453125 31.652344 25.53125 31.949219 26.082031 C 32.25 26.613281 32.347656 26.988281 32.347656 27.566406 C 32.347656 28.367188 32.089844 28.582031 31.707031 28.085938 C 31.628906 27.988281 31.546875 27.90625 31.527344 27.90625 C 31.480469 27.90625 31.359375 28.21875 31.269531 28.539062 L 31.21875 28.738281 L 31.636719 29.128906 C 32.207031 29.65625 32.820312 30.472656 33.035156 30.996094 C 33.148438 31.265625 33.238281 32.199219 33.207031 32.804688 C 33.175781 33.394531 33.144531 33.519531 33.03125 33.519531 C 32.917969 33.519531 32.820312 33.222656 32.710938 32.578125 C 32.660156 32.25 32.605469 31.972656 32.59375 31.964844 C 32.566406 31.9375 31.882812 33.382812 31.882812 33.453125 C 31.882812 33.480469 31.992188 33.601562 32.121094 33.722656 C 32.464844 34.050781 32.65625 34.367188 32.65625 34.601562 C 32.65625 34.710938 32.640625 34.796875 32.625 34.796875 C 32.605469 34.796875 32.445312 34.667969 32.265625 34.515625 C 31.898438 34.195312 31.667969 34.082031 31.382812 34.082031 C 31.140625 34.082031 30.734375 34.261719 30.761719 34.347656 C 30.777344 34.382812 30.898438 34.453125 31.039062 34.503906 C 31.660156 34.734375 32.140625 35.550781 32.269531 36.605469 C 32.300781 36.847656 32.226562 37.480469 32.167969 37.539062 C 32.109375 37.601562 32.039062 37.460938 31.910156 37.019531 C 31.757812 36.511719 31.492188 35.90625 31.328125 35.714844 C 31.222656 35.597656 31.21875 35.597656 31.214844 35.6875 C 31.214844 35.746094 31.285156 36.019531 31.375 36.300781 C 31.457031 36.582031 31.558594 37.027344 31.601562 37.285156 C 31.644531 37.597656 31.734375 37.894531 31.855469 38.15625 C 32.09375 38.683594 32.15625 39.019531 32.09375 39.460938 C 32.027344 39.90625 31.816406 40.816406 31.773438 40.816406 C 31.757812 40.816406 31.714844 40.730469 31.675781 40.617188 C 31.589844 40.347656 31.335938 40.046875 30.890625 39.679688 C 30.421875 39.289062 30.1875 39.027344 29.894531 38.515625 C 29.621094 38.046875 29.535156 37.960938 29.492188 38.101562 C 29.402344 38.382812 29.710938 39.179688 30.15625 39.835938 C 30.230469 39.9375 30.285156 40.050781 30.285156 40.085938 C 30.285156 40.167969 30.039062 40.167969 29.515625 40.082031 L 29.128906 40.019531 L 29.097656 32.679688 C 29.082031 28.636719 29.050781 25.285156 29.03125 25.230469 C 28.941406 25 29.195312 25.382812 29.457031 25.878906 C 29.605469 26.152344 29.746094 26.367188 29.761719 26.351562 C 29.78125 26.335938 29.808594 25.710938 29.828125 24.960938 C 29.871094 23.484375 29.9375 23.050781 30.1875 22.601562 C 30.3125 22.378906 30.578125 22.195312 30.777344 22.195312 C 30.832031 22.195312 31.003906 22.25 31.152344 22.320312 Z M 10.519531 22.34375 C 10.675781 22.46875 11.007812 23.15625 11.074219 23.515625 C 11.101562 23.664062 11.125 24.3125 11.125 24.949219 C 11.125 25.585938 11.140625 26.183594 11.15625 26.269531 C 11.1875 26.429688 11.203125 26.40625 11.464844 25.882812 C 11.613281 25.578125 11.773438 25.289062 11.824219 25.25 C 11.910156 25.183594 11.914062 25.1875 11.871094 25.28125 C 11.8125 25.421875 11.753906 30.03125 11.75 35.464844 C 11.742188 39.632812 11.734375 40.09375 11.660156 40.121094 C 11.574219 40.152344 10.558594 40.167969 10.558594 40.132812 C 10.558594 40.121094 10.691406 39.851562 10.863281 39.535156 C 11.253906 38.785156 11.34375 38.511719 11.320312 38.101562 L 11.304688 37.78125 L 11.160156 38.085938 C 10.894531 38.644531 10.554688 39.097656 9.941406 39.722656 C 9.484375 40.1875 9.316406 40.394531 9.265625 40.554688 C 9.1875 40.804688 9.144531 40.820312 9.070312 40.597656 C 8.925781 40.15625 8.855469 39.695312 8.855469 39.195312 C 8.855469 38.710938 8.875 38.582031 9.035156 38.070312 C 9.136719 37.761719 9.277344 37.210938 9.347656 36.851562 C 9.421875 36.488281 9.539062 36.082031 9.609375 35.9375 C 9.808594 35.53125 9.753906 35.429688 9.503906 35.71875 C 9.261719 36.011719 9.074219 36.429688 8.890625 37.117188 C 8.703125 37.8125 8.515625 37.554688 8.566406 36.683594 C 8.636719 35.539062 9.425781 34.382812 10.050781 34.511719 C 10.351562 34.566406 10.167969 34.335938 9.761719 34.152344 C 9.316406 33.945312 9.121094 34.003906 8.523438 34.515625 L 8.128906 34.863281 L 8.164062 34.6875 C 8.230469 34.371094 8.375 34.113281 8.675781 33.761719 L 8.972656 33.414062 L 8.75 32.835938 C 8.503906 32.183594 8.417969 32.03125 8.347656 32.132812 C 8.324219 32.171875 8.265625 32.402344 8.21875 32.644531 C 8.128906 33.117188 7.972656 33.519531 7.886719 33.519531 C 7.789062 33.519531 7.75 33.246094 7.75 32.472656 C 7.757812 31.238281 7.859375 30.894531 8.476562 29.988281 C 8.878906 29.40625 9.152344 29.09375 9.378906 28.949219 C 9.664062 28.777344 9.695312 28.554688 9.496094 28.179688 C 9.339844 27.867188 9.21875 27.777344 9.21875 27.964844 C 9.21875 28.214844 8.902344 28.363281 8.75 28.183594 C 8.5625 27.960938 8.796875 26.546875 9.117188 25.988281 C 9.210938 25.835938 9.269531 25.6875 9.261719 25.65625 C 9.25 25.632812 9.132812 25.679688 9 25.769531 C 8.375 26.179688 8.09375 27.03125 8.167969 28.269531 C 8.21875 29.128906 8.105469 29.320312 7.855469 28.796875 C 7.613281 28.289062 7.515625 27.796875 7.511719 27.066406 C 7.5 26.011719 7.691406 25.484375 8.289062 24.894531 C 8.550781 24.632812 8.75 24.496094 9.152344 24.296875 C 9.441406 24.152344 9.6875 24.011719 9.703125 23.984375 C 9.761719 23.902344 9.632812 23.863281 9.226562 23.835938 C 8.808594 23.8125 8.703125 23.769531 8.703125 23.613281 C 8.703125 23.25 9.269531 22.683594 9.953125 22.371094 C 10.28125 22.21875 10.351562 22.214844 10.519531 22.34375 Z M 21.082031 25.253906 C 22.164062 25.65625 22.921875 26.949219 22.71875 28.035156 C 22.589844 28.730469 22.179688 29.261719 21.507812 29.585938 C 21.109375 29.78125 20.824219 29.847656 20.34375 29.847656 C 19.632812 29.847656 19.136719 29.648438 18.613281 29.171875 C 17.867188 28.480469 17.609375 27.367188 18.007812 26.554688 C 18.191406 26.171875 18.78125 25.578125 19.152344 25.386719 C 19.769531 25.078125 20.480469 25.03125 21.082031 25.253906 Z M 17.121094 29.460938 C 17.15625 29.652344 17.285156 29.761719 17.65625 29.921875 C 17.785156 29.972656 17.875 30.050781 17.875 30.097656 C 17.875 30.144531 17.789062 30.351562 17.691406 30.554688 C 17.417969 31.117188 17.398438 31.261719 17.492188 32.046875 C 17.601562 33.035156 17.667969 35.898438 17.667969 39.871094 C 17.667969 44.601562 17.640625 44.964844 17.234375 46.710938 C 17.164062 47.015625 17.074219 47.464844 17.042969 47.703125 C 16.960938 48.335938 16.84375 48.535156 16.703125 48.261719 C 16.527344 47.902344 16.453125 44.902344 16.398438 36.582031 C 16.363281 30.277344 16.367188 30.144531 16.621094 29.683594 C 16.761719 29.429688 16.976562 29.214844 17.050781 29.261719 C 17.070312 29.277344 17.105469 29.363281 17.121094 29.460938 Z M 24.0625 29.421875 C 24.199219 29.578125 24.3125 30.003906 24.375 30.5625 C 24.441406 31.214844 24.394531 43.128906 24.3125 45.511719 C 24.265625 46.972656 24.1875 48.070312 24.125 48.28125 C 24.078125 48.429688 23.941406 48.355469 23.867188 48.148438 C 23.832031 48.039062 23.761719 47.734375 23.714844 47.460938 C 23.667969 47.1875 23.566406 46.699219 23.480469 46.367188 C 23.199219 45.222656 23.203125 45.3125 23.203125 38.570312 C 23.203125 33.667969 23.21875 32.238281 23.269531 31.9375 C 23.421875 31.085938 23.425781 31.132812 23.105469 30.539062 C 22.945312 30.246094 22.816406 29.988281 22.816406 29.980469 C 22.816406 29.964844 22.953125 29.914062 23.113281 29.867188 C 23.328125 29.804688 23.472656 29.71875 23.636719 29.5625 C 23.890625 29.3125 23.949219 29.296875 24.0625 29.421875 Z M 14.765625 30.964844 C 15.015625 31.328125 15.105469 31.679688 15.132812 32.320312 C 15.175781 33.40625 14.972656 47.179688 14.90625 47.894531 C 14.863281 48.335938 14.8125 48.394531 14.410156 48.394531 L 14.085938 48.394531 L 14.054688 45.050781 C 14.003906 39.503906 14.011719 32.464844 14.0625 31.949219 C 14.09375 31.6875 14.148438 31.402344 14.195312 31.3125 C 14.355469 31.003906 14.539062 30.761719 14.597656 30.78125 C 14.628906 30.789062 14.707031 30.871094 14.765625 30.964844 Z M 26.453125 30.929688 C 26.726562 31.253906 26.742188 31.351562 26.785156 32.832031 C 26.832031 34.402344 26.746094 47.582031 26.691406 48.011719 C 26.660156 48.25 26.632812 48.300781 26.511719 48.355469 C 26.300781 48.460938 26.121094 48.398438 26.03125 48.1875 C 25.902344 47.882812 25.863281 46.851562 25.832031 43.085938 C 25.816406 41.066406 25.78125 38.585938 25.753906 37.578125 C 25.644531 33.378906 25.636719 32.28125 25.695312 31.914062 C 25.785156 31.414062 26.109375 30.765625 26.269531 30.765625 C 26.289062 30.765625 26.378906 30.84375 26.453125 30.929688 Z M 20.746094 31.535156 C 20.753906 31.886719 20.738281 32.238281 20.710938 32.316406 C 20.664062 32.433594 20.628906 32.449219 20.433594 32.449219 C 20.277344 32.449219 20.179688 32.417969 20.125 32.355469 C 20.003906 32.230469 19.917969 31.730469 19.945312 31.332031 C 19.96875 30.929688 20.046875 30.855469 20.449219 30.878906 L 20.730469 30.894531 Z M 36.460938 33.300781 C 36.613281 33.671875 36.714844 34.449219 36.632812 34.570312 C 36.542969 34.710938 35.773438 34.921875 35.199219 34.964844 C 34.84375 34.996094 34.796875 34.960938 34.910156 34.753906 C 35.179688 34.261719 36.148438 33.164062 36.3125 33.164062 C 36.363281 33.164062 36.425781 33.222656 36.460938 33.300781 Z M 4.78125 33.285156 C 5.125 33.464844 5.980469 34.53125 6.105469 34.945312 C 6.140625 35.0625 6.132812 35.0625 5.867188 35.027344 C 5.46875 34.96875 4.734375 34.753906 4.589844 34.648438 C 4.515625 34.601562 4.441406 34.488281 4.414062 34.40625 C 4.371094 34.253906 4.402344 33.347656 4.457031 33.261719 C 4.5 33.195312 4.621094 33.203125 4.78125 33.285156 Z M 11.726562 40.949219 C 11.78125 41.09375 11.667969 41.199219 11.425781 41.230469 C 11.128906 41.277344 10.730469 41.472656 10.277344 41.8125 C 9.695312 42.238281 9.554688 42.285156 9.703125 42 C 10.003906 41.421875 11.59375 40.601562 11.726562 40.949219 Z M 30.109375 41.199219 C 30.617188 41.4375 30.960938 41.753906 31.207031 42.195312 C 31.347656 42.445312 31.347656 42.445312 30.777344 42.039062 C 30.339844 41.734375 29.925781 41.484375 29.460938 41.246094 C 29.296875 41.15625 29.175781 41.054688 29.164062 41 C 29.144531 40.914062 29.164062 40.90625 29.390625 40.9375 C 29.527344 40.953125 29.855469 41.070312 30.109375 41.199219 Z M 11.527344 41.75 C 11.671875 41.917969 11.707031 42.621094 11.710938 45.28125 C 11.71875 46.765625 11.699219 48.050781 11.675781 48.132812 C 11.636719 48.277344 11.625 48.277344 11.394531 48.246094 C 10.980469 48.1875 10.316406 47.828125 9.9375 47.453125 C 9.523438 47.039062 9.40625 46.753906 9.4375 46.230469 C 9.457031 45.804688 9.710938 45.265625 10.070312 44.855469 C 10.203125 44.714844 10.292969 44.59375 10.265625 44.59375 C 10.246094 44.59375 10.074219 44.636719 9.898438 44.695312 C 9.496094 44.816406 9.40625 44.820312 9.292969 44.710938 C 9.105469 44.527344 9.339844 43.632812 9.753906 42.945312 C 10.207031 42.1875 11.289062 41.464844 11.527344 41.75 Z M 29.796875 41.894531 C 30.25 42.113281 30.664062 42.453125 30.957031 42.847656 C 31.234375 43.214844 31.578125 43.882812 31.671875 44.210938 C 31.75 44.5 31.742188 44.882812 31.660156 44.914062 C 31.621094 44.929688 31.441406 44.898438 31.261719 44.851562 C 31.078125 44.800781 30.835938 44.746094 30.722656 44.722656 L 30.523438 44.683594 L 30.785156 44.921875 C 31.167969 45.261719 31.472656 45.929688 31.472656 46.4375 C 31.472656 47.167969 30.769531 47.867188 29.65625 48.246094 C 29.457031 48.3125 29.277344 48.355469 29.261719 48.34375 C 29.1875 48.269531 29.121094 42.699219 29.1875 42.027344 C 29.21875 41.679688 29.21875 41.679688 29.355469 41.710938 C 29.425781 41.730469 29.628906 41.8125 29.796875 41.894531 Z M 29.796875 41.894531 "/>
<path style=" stroke:none;fill-rule:nonzero;fill:rgb(0%,0%,0%);fill-opacity:1;" d="M 3.78125 46.597656 C 3.722656 46.632812 3.570312 46.738281 3.445312 46.84375 C 3.101562 47.128906 3.003906 47.15625 2.460938 47.195312 C 2.183594 47.210938 1.945312 47.238281 1.925781 47.261719 C 1.910156 47.277344 1.972656 47.402344 2.074219 47.535156 C 2.40625 47.988281 2.625 48.585938 2.550781 48.820312 C 2.5 48.984375 2.214844 49.171875 1.773438 49.332031 C 0.9375 49.636719 0.652344 49.800781 0.765625 49.914062 C 0.859375 50 3.398438 50 3.664062 49.90625 C 4.09375 49.761719 4.078125 49.136719 3.617188 48.066406 L 3.429688 47.636719 L 3.574219 47.402344 C 3.988281 46.710938 4.054688 46.445312 3.78125 46.597656 Z M 3.78125 46.597656 "/>
<path style=" stroke:none;fill-rule:nonzero;fill:rgb(0%,0%,0%);fill-opacity:1;" d="M 37.117188 46.679688 C 37.054688 46.777344 37.15625 47.046875 37.328125 47.246094 C 37.542969 47.488281 37.539062 47.566406 37.269531 48.15625 C 37.027344 48.683594 36.96875 48.964844 36.992188 49.386719 C 37.011719 49.796875 37.074219 49.882812 37.375 49.949219 C 37.480469 49.972656 38.175781 50 38.914062 49.996094 L 40.253906 49.996094 L 40.074219 49.847656 C 39.847656 49.65625 39.332031 49.394531 38.847656 49.210938 C 38.457031 49.066406 38.320312 48.9375 38.320312 48.722656 C 38.320312 48.5 38.523438 47.988281 38.757812 47.605469 C 38.910156 47.367188 38.964844 47.234375 38.925781 47.21875 C 38.886719 47.210938 38.667969 47.195312 38.425781 47.183594 C 37.964844 47.164062 37.78125 47.082031 37.378906 46.753906 C 37.21875 46.621094 37.15625 46.605469 37.117188 46.679688 Z M 37.117188 46.679688 "/>
</g>
</svg>
